<svg xmlns="http://www.w3.org/2000/svg" viewBox="0 0 1200 400" role="img" aria-label="Silhouette of spk-2.1 from E">
  <path d="M0 360 L0 38.69 L18.75 48.82 L37.5 66.19 L56.25 80.66 L75 87.9 L93.75 92.24 L112.5 93.68 L131.25 93.68 L150 92.24 L168.75 90.79 L187.5 93.68 L206.25 100.92 L225 113.95 L243.75 131.32 L262.5 150.13 L281.25 167.5 L300 180.53 L318.75 189.21 L337.5 193.55 L356.25 192.11 L375 190.66 L393.75 195 L412.5 205.13 L431.25 213.82 L450 213.82 L468.75 203.69 L487.5 197.9 L506.25 209.47 L525 235.52 L543.75 254.34 L562.5 270.26 L581.25 300.66 L600 335.4 L618.75 338.29 L637.5 309.34 L656.25 278.95 L675 265.92 L693.75 258.69 L712.5 247.11 L731.25 238.42 L750 231.18 L768.75 222.5 L787.5 209.47 L806.25 197.9 L825 189.21 L843.75 180.53 L862.5 167.5 L881.25 153.03 L900 141.45 L918.75 137.1 L937.5 144.34 L956.25 163.16 L975 179.08 L993.75 173.29 L1012.5 157.37 L1031.25 154.47 L1050 166.05 L1068.75 167.5 L1087.5 154.47 L1106.25 148.68 L1125 155.92 L1143.75 166.05 L1162.5 163.16 L1200 160.26 L1200 360 L1200 360 L0 360 Z" fill="#243247" fill-opacity="1" stroke="#0e1526" stroke-width="1.5" stroke-linejoin="round"/>
</svg>